<?xml version="1.0" encoding="UTF-8"?>
<svg width="28px" height="28px" viewBox="0 0 28 28" version="1.1" xmlns="http://www.w3.org/2000/svg" xmlns:xlink="http://www.w3.org/1999/xlink">
    <!-- Generator: sketchtool 61.2 (101010) - https://sketch.com -->
    <title>7651F644-CB63-4782-8DA8-471EC23D618A</title>
    <desc>Created with sketchtool.</desc>
    <g id="Plugin-In-Screen" stroke="none" stroke-width="1" fill="none" fill-rule="evenodd">
        <g id="Signed-In---Settings" transform="translate(-387.000000, -33.000000)">
            <g id="Group-9" transform="translate(15.000000, 15.000000)">
                <g id="Group-8" transform="translate(20.000000, 18.000000)">
                    <g id="Group" transform="translate(352.000000, 0.000000)">
                        <circle id="Oval" fill="#F0F0F0" cx="14" cy="14" r="14"></circle>
                        <g id="user" transform="translate(9.000000, 7.000000)" fill="#BFBFBF" fill-rule="nonzero">
                            <path d="M9.16666667,4.0625 C9.16666667,2.9404375 8.7,1.9248125 7.94666667,1.1903125 C7.1925,0.455 6.15083333,0 5,0 C3.84916667,0 2.8075,0.455 2.05333333,1.1903125 C1.3,1.9248125 0.833333333,2.9404375 0.833333333,4.0625 C0.833333333,5.1845625 1.3,6.2001875 2.05333333,6.9346875 C2.8075,7.67 3.84916667,8.125 5,8.125 C6.15083333,8.125 7.1925,7.67 7.94666667,6.9346875 C8.7,6.2001875 9.16666667,5.1845625 9.16666667,4.0625 Z M0,11.6458333 C0,12.3229167 1.875,13 5,13 C7.93166667,13 10,12.3229167 10,11.6458333 C10,10.2916667 8.03833333,8.9375 5,8.9375 C1.875,8.9375 0,10.2916667 0,11.6458333 Z" id="Shape"></path>
                        </g>
                    </g>
                </g>
            </g>
        </g>
    </g>
</svg>