<?xml version="1.0" encoding="UTF-8"?>
<svg width="24px" height="24px" viewBox="0 0 24 24" version="1.1" xmlns="http://www.w3.org/2000/svg" xmlns:xlink="http://www.w3.org/1999/xlink">
    <!-- Generator: sketchtool 61.2 (101010) - https://sketch.com -->
    <title>0AF289B3-CD6B-4192-B34C-D87CB6C873B2</title>
    <desc>Created with sketchtool.</desc>
    <g id="Plugin-In-Screen" stroke="none" stroke-width="1" fill="none" fill-rule="evenodd">
        <g id="Signed-In---Settings" transform="translate(-40.000000, -208.000000)">
            <g id="Group-3" transform="translate(40.000000, 181.000000)">
                <g id="Group-2" transform="translate(0.000000, 27.000000)">
                    <g id="Group-5">
                        <rect id="Rectangle" fill="#FFF4E5" x="0" y="0" width="24" height="24" rx="2"></rect>
                        <g id="icn_amazoncolor" transform="translate(6.473684, 7.500000)">
                            <path d="M7.81993423,3.02416237 C7.81993423,3.36463008 7.83251263,3.70305109 7.81574142,4.0435188 C7.79897022,4.43087288 7.92059653,4.76317086 8.17221721,5.05673514 C8.20156682,5.09139251 8.22884634,5.12604988 8.2539856,5.16275394 C8.34417467,5.29527744 8.32738593,5.38700349 8.20367199,5.48894595 C7.93943782,5.70505988 7.67732637,5.9231864 7.41312729,6.13930033 C7.2558534,6.26773044 7.15729626,6.2657008 6.99793475,6.13930033 C6.78404927,5.97008983 6.61628461,5.76214562 6.46741387,5.53990866 C6.43176629,5.48691631 6.41288991,5.48894595 6.36885673,5.52970929 C6.10462256,5.78046354 5.82573991,6.01288281 5.47136929,6.12910097 C4.92405967,6.31054048 4.36836444,6.33909187 3.81896719,6.14948264 C3.29053394,5.96599644 2.97389853,5.58679503 2.85646502,5.05878184 C2.72645311,4.46958952 2.79355547,3.90894861 3.16680246,3.40946975 C3.44989546,3.03231504 3.84201882,2.81009513 4.29285894,2.67351236 C4.75838264,2.53488288 5.23857236,2.48187348 5.72086726,2.43498711 C5.85717714,2.42071142 5.99138186,2.40848241 6.1276742,2.39625341 C6.1612166,2.39420672 6.19058375,2.39013038 6.18847858,2.34732035 C6.18430332,2.13122347 6.20735496,1.9110332 6.15493617,1.69901266 C6.08783382,1.42787674 5.90538558,1.26884854 5.62650292,1.20971612 C5.42730103,1.16690608 5.23018676,1.17913508 5.03726529,1.24234384 C4.74369906,1.34019292 4.56125082,1.53795482 4.48786804,1.8315191 C4.44802766,1.99257694 4.37043453,2.04966267 4.20896784,2.03334028 C3.86507046,1.99868291 3.52117307,1.96402555 3.17938086,1.92936818 C3.03887817,1.91509248 2.96549539,1.81112038 2.99484499,1.67859688 C3.17308289,0.832544345 3.74346169,0.357523499 4.56546117,0.139379927 C5.19664435,-0.0277838842 5.83621314,-0.0379832474 6.46948395,0.135303593 C6.97904083,0.273933065 7.40682931,0.518581337 7.64587159,1.00378449 C7.78218147,1.2790138 7.81363625,1.57665441 7.81782905,1.87431208 C7.82202185,2.25557724 7.81782905,2.64088463 7.81993423,3.02416237 C7.81782905,3.02416237 7.81993423,3.02416237 7.81993423,3.02416237 Z M6.18849612,3.66024106 C6.18849612,3.55829859 6.18432087,3.45637318 6.1906013,3.35443072 C6.1947941,3.29122195 6.17172492,3.26879359 6.10672774,3.27491662 C5.94734868,3.28917526 5.78589953,3.29122195 5.62652047,3.31160362 C5.34763781,3.34626099 5.07501804,3.41354609 4.84855417,3.58478623 C4.51932282,3.83555753 4.45013283,4.17805488 4.50463924,4.56336227 C4.56965397,5.01593769 4.98484651,5.26670899 5.4294062,5.11585052 C5.73135803,5.01390805 5.91587635,4.79782823 6.04380064,4.5266582 C6.17800535,4.25146301 6.18849612,3.95585203 6.18849612,3.66024106 Z" id="Shape" fill="#000000" fill-rule="nonzero"></path>
                            <path d="M5.41261745,8.26158657 C3.81265167,8.2513872 2.37624021,7.85182118 1.07822626,7.00982793 C0.814009639,6.83857072 0.562371417,6.65100819 0.32332914,6.44511067 C0.302365136,6.42675864 0.281383589,6.40842367 0.264612385,6.38597824 C0.241543209,6.35539721 0.224772006,6.3187102 0.252033983,6.28200614 C0.27929596,6.24122574 0.325434312,6.23714941 0.365274691,6.25550144 C0.457533853,6.29831148 0.545617756,6.34519785 0.635771746,6.39005458 C1.46198157,6.81409566 2.33220703,7.119906 3.24437804,7.31357451 C4.07057033,7.48890805 4.90514821,7.57046884 5.75232204,7.54802342 C6.96226962,7.51541275 8.12816649,7.27891715 9.25003017,6.84058331 C9.30455412,6.818172 9.36118325,6.79574363 9.41779483,6.78349757 C9.49749314,6.76922188 9.57717389,6.77942124 9.61282147,6.86301167 C9.64636388,6.94047908 9.6023307,7.00164115 9.54361394,7.05057421 C9.50166839,7.08521452 9.45344241,7.11376592 9.40521643,7.14434695 C8.68177408,7.60101577 7.88912421,7.89458005 7.05035353,8.07603661 C6.49674593,8.19839486 5.93477027,8.25749318 5.41261745,8.26158657 Z" id="Path" fill="#F08801"></path>
                            <path d="M9.44924961,6.44511067 C9.20810216,6.44306398 8.96905989,6.47364501 8.73000007,6.49810302 C8.68386171,6.50217935 8.63144293,6.51440835 8.61047893,6.46549234 C8.58532212,6.41043625 8.6335481,6.37782558 8.67338848,6.35132088 C8.97116506,6.15969906 9.30457167,6.08426129 9.65476702,6.06590926 C9.89591447,6.05165062 10.1349567,6.06184998 10.3698238,6.13114767 C10.4767665,6.1617287 10.5291853,6.22289077 10.5270977,6.32890957 C10.5145193,6.89565646 10.3194926,7.38902934 9.89801965,7.79065911 C9.88333607,7.80493481 9.86656487,7.81716381 9.84979366,7.82939281 C9.81205846,7.85591457 9.7659201,7.88035552 9.72606218,7.84774485 C9.68832697,7.81716381 9.70929098,7.77230708 9.72606218,7.73562007 C9.84979366,7.43593276 9.97561278,7.13829215 10.0363996,6.81820611 C10.0448028,6.77742571 10.0468904,6.73666237 10.0489956,6.69791161 C10.0510832,6.56538811 10.0028572,6.50831944 9.8686525,6.47570876 C9.72814981,6.43898764 9.58764712,6.44511067 9.44924961,6.44511067 Z" id="Path" fill="#F08801"></path>
                        </g>
                    </g>
                </g>
            </g>
        </g>
    </g>
</svg>