<?xml version="1.0" encoding="UTF-8"?>
<svg width="16px" height="14px" viewBox="0 0 16 14" version="1.1" xmlns="http://www.w3.org/2000/svg" xmlns:xlink="http://www.w3.org/1999/xlink">
    <!-- Generator: sketchtool 61.2 (101010) - https://sketch.com -->
    <title>93762B86-82E8-4A36-92CF-1E8476C1BF55</title>
    <desc>Created with sketchtool.</desc>
    <g id="Plugin-In-Screen" stroke="none" stroke-width="1" fill="none" fill-rule="evenodd">
        <g id="Sign-Up" transform="translate(-39.000000, -36.000000)" fill="#000000" fill-rule="nonzero">
            <g id="Group-9" transform="translate(15.000000, 13.000000)">
                <g id="Group-8" transform="translate(20.000000, 17.000000)">
                    <g id="arrow-back-outline" transform="translate(0.000000, 1.000000)">
                        <rect id="Rectangle" opacity="0" transform="translate(12.000000, 12.000000) rotate(90.000000) translate(-12.000000, -12.000000) " x="0" y="0" width="24" height="24"></rect>
                        <path d="M19,11 L7.14,11 L10.77,6.64 C11.1234622,6.21474074 11.0652593,5.58346224 10.64,5.23 C10.2147407,4.87653776 9.58346224,4.93474074 9.23,5.36 L4.23,11.36 C4.19636068,11.4077243 4.16627943,11.4578597 4.14,11.51 C4.14,11.56 4.14,11.59 4.07,11.64 C4.02467348,11.7546587 4.00094112,11.8767108 4,12 C4.00094112,12.1232892 4.02467348,12.2453413 4.07,12.36 C4.07,12.41 4.07,12.44 4.14,12.49 C4.16627943,12.5421403 4.19636068,12.5922757 4.23,12.64 L9.23,18.64 C9.42035649,18.8685401 9.70256776,19.000483 10,19.0000019 C10.2336522,19.0004565 10.4600879,18.9190812 10.64,18.77 C10.8445071,18.6004518 10.9731478,18.3564992 10.9975369,18.0919715 C11.021926,17.8274438 10.9400589,17.5640826 10.77,17.36 L7.14,13 L19,13 C19.5522847,13 20,12.5522847 20,12 C20,11.4477153 19.5522847,11 19,11 Z" id="Path"></path>
                    </g>
                </g>
            </g>
        </g>
    </g>
</svg>