<?xml version="1.0" encoding="UTF-8"?>
<svg width="24px" height="24px" viewBox="0 0 24 24" version="1.1" xmlns="http://www.w3.org/2000/svg" xmlns:xlink="http://www.w3.org/1999/xlink">
    <!-- Generator: sketchtool 61.2 (101010) - https://sketch.com -->
    <title>DB13BBBD-F2D8-49B4-8421-6DF82890BBAC</title>
    <desc>Created with sketchtool.</desc>
    <g id="Plugin-In-Screen" stroke="none" stroke-width="1" fill="none" fill-rule="evenodd">
        <g id="Signed-In---Settings" transform="translate(-40.000000, -433.000000)">
            <g id="Group-3" transform="translate(40.000000, 181.000000)">
                <g id="Group-2" transform="translate(0.000000, 252.000000)">
                    <g id="Group-5">
                        <rect id="Rectangle" fill="#E5EFFF" x="0" y="0" width="24" height="24" rx="2"></rect>
                        <g id="Best_Buy_logo_2018" transform="translate(6.000000, 8.000000)" fill-rule="nonzero">
                            <path d="M0,0.0938690148 L0,3.36469515 L1.7174482,3.36469515 C2.39342467,3.36469515 3.01810587,3.12812068 3.01810587,2.43320398 C3.01810587,1.96341765 2.67870616,1.74896565 2.30540349,1.63671157 C2.53284499,1.54574126 2.79085339,1.35463024 2.79085339,0.954003724 C2.79085339,0.441239076 2.2806264,0.0938690148 1.59366818,0.0938690148 L0,0.0938690148 L0,0.0938690148 Z M1.05213043,0.855647515 L1.43894309,0.855647515 C1.59640832,0.855647515 1.71648113,0.978639213 1.71648113,1.10346661 C1.71648113,1.21944326 1.59171428,1.34357141 1.43894309,1.34357141 L1.05213043,1.34357141 L1.05213043,0.855647515 Z M1.05213043,2.0224222 L1.56272311,2.0224222 C1.74097014,2.0224222 1.89054684,2.15741409 1.89054684,2.31170511 C1.89054684,2.47554672 1.75065189,2.61159522 1.53177817,2.61159522 L1.05213043,2.61159522 L1.05213043,2.0224222 L1.05213043,2.0224222 Z" id="path2998" fill="#162D5A"></path>
                            <path d="M0.8509878,3.72146765 L0.8509878,6.99229387 L2.56843613,6.99229387 C3.2444126,6.99229387 3.86909367,6.75571928 3.86909367,6.06080257 C3.86909367,5.59101637 3.52969409,5.37656437 3.15639129,5.26431016 C3.38383279,5.17333985 3.64184119,4.98222883 3.64184119,4.58160237 C3.64184119,4.06883772 3.13161433,3.72146765 2.44465598,3.72146765 L0.8509878,3.72146765 L0.8509878,3.72146765 Z M1.90311836,4.48324615 L2.28993102,4.48324615 C2.44739625,4.48324615 2.56746906,4.60623783 2.56746906,4.7310652 C2.56746906,4.84704198 2.44270221,4.97117013 2.28993102,4.97117013 L1.90311836,4.97117013 L1.90311836,4.48324615 Z M1.90311836,5.65002079 L2.41371104,5.65002079 C2.59195807,5.65002079 2.74153477,5.78501268 2.74153477,5.93930383 C2.74153477,6.10314531 2.60163982,6.23919381 2.38276597,6.23919381 L1.90311836,6.23919381 L1.90311836,5.65002079 L1.90311836,5.65002079 Z" id="path3005" fill="#162D5A"></path>
                            <polygon id="path3007" fill="#162D5A" points="3.10069032 3.36429965 3.10069032 0.0934734241 5.74648893 0.0934734241 5.74648893 0.883408802 4.14972623 0.883408802 4.14972623 1.312319 5.44632231 1.312319 5.44632231 2.05288348 4.14972623 2.05288348 4.14972623 2.57744987 5.74648893 2.57744987 5.74648893 3.36429965"></polygon>
                            <path d="M7.17974556,3.4579227 C7.92448527,3.4579227 8.52018479,3.03432626 8.52018479,2.34788228 C8.52018479,1.24004892 7.0748769,1.41052563 7.0748769,1.06559687 C7.0748769,0.932359802 7.21539832,0.861655031 7.35950696,0.861655031 C7.6078639,0.861655031 7.78730446,1.02480852 7.78730446,1.02480852 L8.40910798,0.434432989 C8.1604029,0.198422207 7.76761518,0 7.23849659,0 C6.44383792,0 5.92395492,0.470299446 5.92395492,1.03761865 C5.92395492,2.15954079 7.34842875,1.99670861 7.34842875,2.34873213 C7.34842875,2.47213111 7.2293702,2.59627533 7.01343162,2.59627533 C6.76826176,2.59627533 6.57404735,2.44869472 6.42289648,2.32348041 L5.79744984,2.91807039 C6.04929923,3.16268435 6.45362705,3.4579227 7.17974556,3.4579227 L7.17974556,3.4579227 Z" id="path3009" fill="#162D5A"></path>
                            <polygon id="path3011" fill="#162D5A" points="9.32992151 3.36429965 9.32992151 0.880323111 8.46346111 0.880323111 8.46346111 0.0934734241 11.2485126 0.0934734241 11.2485126 0.880323111 10.3820519 0.880323111 10.3820519 3.36429965"></polygon>
                            <path d="M3.90526071,3.71915337 L4.95429662,3.71915337 L4.95429662,5.67856342 C4.95429662,5.87753518 5.15288566,6.06089124 5.35993367,6.06089124 C5.55524814,6.06089124 5.75267797,5.89531363 5.75267797,5.66810076 L5.75267797,3.71915337 L6.79861936,3.71915337 L6.79861936,5.65477029 C6.79861936,6.42283246 6.15911348,7.03550202 5.33221468,7.03550202 C4.50060871,7.03550202 3.90526071,6.36873244 3.90526071,5.6129195 L3.90526071,3.71915337 Z" id="path3013" fill="#162D5A"></path>
                            <polygon id="path3015" fill="#162D5A" points="8.09212092 6.98997959 8.09212092 5.82121863 6.85914099 3.71915337 7.92052339 3.71915337 8.6181862 4.84542848 9.31825921 3.71915337 10.3820519 3.71915337 9.14425135 5.83323607 9.14425135 6.98997959"></polygon>
                            <polygon id="path3017" fill="#FFED31" points="10.3820519 5.50924626 9.76315158 6.12638337 9.76315158 6.95951831 10.3820519 7.57665529 13 7.57665529 13 5.50924626"></polygon>
                            <path d="M10.2804024,6.54255517 C10.2804024,6.61924316 10.2180569,6.68141099 10.1411498,6.68141099 C10.0642427,6.68141099 10.0018973,6.61924316 10.0018973,6.54255517 C10.0018973,6.46586718 10.0642427,6.40369934 10.1411498,6.40369934 C10.2180569,6.40369934 10.2804024,6.46586718 10.2804024,6.54255517 Z" id="path3024" fill="#000000"></path>
                        </g>
                    </g>
                </g>
            </g>
        </g>
    </g>
</svg>