<?xml version="1.0" encoding="UTF-8"?>
<svg width="18px" height="14px" viewBox="0 0 18 14" version="1.1" xmlns="http://www.w3.org/2000/svg" xmlns:xlink="http://www.w3.org/1999/xlink">
    <!-- Generator: sketchtool 61.2 (101010) - https://sketch.com -->
    <title>CEFA38A5-E41E-4330-B27E-0894CECC67A7</title>
    <desc>Created with sketchtool.</desc>
    <g id="Plugin-V2" stroke="none" stroke-width="1" fill="none" fill-rule="evenodd">
        <g id="Sign-Up" transform="translate(-145.000000, -204.000000)" fill-rule="nonzero">
            <g id="Group-10" transform="translate(65.000000, 103.000000)">
                <g id="Group-3" transform="translate(0.000000, 88.000000)">
                    <g id="Group-8">
                        <g id="Group-7" transform="translate(79.000000, 10.000000)">
                            <g id="email">
                                <rect id="Rectangle" fill="#000000" opacity="0" x="0" y="0" width="20" height="20"></rect>
                                <path d="M15.8333333,3.33333333 L4.16666667,3.33333333 C2.78595479,3.33333333 1.66666667,4.45262146 1.66666667,5.83333333 L1.66666667,14.1666667 C1.66666667,15.5473785 2.78595479,16.6666667 4.16666667,16.6666667 L15.8333333,16.6666667 C17.2140452,16.6666667 18.3333333,15.5473785 18.3333333,14.1666667 L18.3333333,5.83333333 C18.3333333,4.45262146 17.2140452,3.33333333 15.8333333,3.33333333 Z M15.8333333,5 L10.4166667,8.725 C10.1588324,8.87386066 9.84116756,8.87386066 9.58333333,8.725 L4.16666667,5 L15.8333333,5 Z" id="Shape" fill="#FFFFFF"></path>
                            </g>
                        </g>
                    </g>
                </g>
            </g>
        </g>
    </g>
</svg>