<svg id="Web" xmlns="http://www.w3.org/2000/svg" width="122.308" height="24.836" viewBox="0 0 122.308 24.836">
  <g id="Homepage" transform="translate(-129 -2712)">
    <g id="Footer" transform="translate(128 2662)">
      <g id="full_white" transform="translate(0 50)">
        <g id="Group-6" transform="translate(1)">
          <path id="Combined-Shape" d="M35.908,7.255h7.1v1.7h-5.1v3h4.8v1.6h-4.8v4.6h-1.9V7.255Zm13.2,0h1.7l4.7,10.9h-2.2l-1-2.5h-4.7l-1,2.5h-2.2Zm2.4,6.8-1.7-4.4-1.7,4.4Zm6.8-6.8h1.9v4.7h0l4.6-4.7h2.6l-5.1,5,5.4,5.9h-2.7l-4.8-5.5h0v5.5h-1.9V7.255Zm12.3,0h7.2v1.7h-5.3v2.8h5v1.6h-5v3.1h5.6v1.7h-7.5Zm16.7,2.3a2.178,2.178,0,0,0-.9-.7,2.607,2.607,0,0,0-1.1-.3,1.7,1.7,0,0,0-.7.1c-.2.1-.4.1-.6.3-.2.1-.3.3-.5.5a.844.844,0,0,0-.2.7,1.072,1.072,0,0,0,.2.6.781.781,0,0,0,.4.4,4.875,4.875,0,0,0,.7.3c.3.1.5.2.8.3a7.6,7.6,0,0,1,1.1.4,2.075,2.075,0,0,1,1,.6,2.361,2.361,0,0,1,.8.9,2.768,2.768,0,0,1,.3,1.3,3.339,3.339,0,0,1-.3,1.5,3.179,3.179,0,0,1-2.2,1.7,7.719,7.719,0,0,1-1.5.2,4.984,4.984,0,0,1-3.8-1.6l1.4-1.3a2.445,2.445,0,0,0,1.1.9,3.079,3.079,0,0,0,1.3.3,1.7,1.7,0,0,0,.7-.1l.6-.3c.2-.1.3-.3.5-.5a1.325,1.325,0,0,0,0-1.4,1.2,1.2,0,0,0-.5-.5,5.938,5.938,0,0,0-.8-.4l-1-.3a4.179,4.179,0,0,1-1-.4,2.361,2.361,0,0,1-.9-.6,1.456,1.456,0,0,1-.6-.9,2.549,2.549,0,0,1-.2-1.3,2.9,2.9,0,0,1,.3-1.4,2.836,2.836,0,0,1,.9-1,3.1,3.1,0,0,1,1.3-.6,7.719,7.719,0,0,1,1.5-.2,5.079,5.079,0,0,1,1.7.3,7.165,7.165,0,0,0,1.5,1.1Zm5-2.3h3.6a8.807,8.807,0,0,1,1.7.2,3.1,3.1,0,0,1,1.3.6,2.539,2.539,0,0,1,.8,1,3.339,3.339,0,0,1,.3,1.5,3.339,3.339,0,0,1-.3,1.5,2.836,2.836,0,0,1-.9,1,2.947,2.947,0,0,1-1.3.5,8.752,8.752,0,0,1-1.6.2h-1.5v4.5h-1.9v-11Zm3.3,4.8a2.769,2.769,0,0,0,.9-.1,2.354,2.354,0,0,0,.8-.2,1.205,1.205,0,0,0,.5-.5,1.7,1.7,0,0,0,0-1.6,1.205,1.205,0,0,0-.5-.5,1.884,1.884,0,0,0-.8-.2c-.3,0-.6-.1-.9-.1h-1.4v3.1h1.4Zm7.3.7a6.051,6.051,0,0,1,.4-2.4,5.675,5.675,0,0,1,1.2-1.8,3.991,3.991,0,0,1,1.9-1.1,5.867,5.867,0,0,1,2.3-.4,6.375,6.375,0,0,1,2.4.4,7.24,7.24,0,0,1,1.9,1.1,5.675,5.675,0,0,1,1.2,1.8,6.051,6.051,0,0,1,.4,2.4,5.558,5.558,0,0,1-.4,2.3,5.675,5.675,0,0,1-1.2,1.8,5.162,5.162,0,0,1-1.9,1.2,6.051,6.051,0,0,1-2.4.4,5.867,5.867,0,0,1-2.3-.4,7.607,7.607,0,0,1-1.9-1.2,5.675,5.675,0,0,1-1.2-1.8A5.867,5.867,0,0,1,102.908,12.755Zm2.1,0a4.145,4.145,0,0,0,.3,1.6,3.528,3.528,0,0,0,.8,1.3,2.55,2.55,0,0,0,1.2.8,4.013,4.013,0,0,0,1.5.3,3.653,3.653,0,0,0,1.5-.3,5.025,5.025,0,0,0,1.2-.8,5.67,5.67,0,0,0,.8-1.3,4.417,4.417,0,0,0,0-3.2,3.528,3.528,0,0,0-.8-1.3,2.55,2.55,0,0,0-1.2-.8,4.013,4.013,0,0,0-1.5-.3,3.653,3.653,0,0,0-1.5.3,5.025,5.025,0,0,0-1.2.8,5.67,5.67,0,0,0-.8,1.3A4.145,4.145,0,0,0,105.008,12.755Zm15-3.8h-3.3v-1.7h8.6v1.7h-3.3v9.2h-1.9v-9.2Z" transform="translate(-3)"/>
          <path id="Fill-1" d="M12.508,14.055c-.3-.2-.5-.3-.8-.5-1.1-.7-2.1-1.3-3.2-2-.7-.4-.8-.4-1.1.3a6.706,6.706,0,0,1-.9,1.4c-.3.5-.2.7.3,1,1.9,1.1,3.8,2.2,5.6,3.3.6.4.9.3,1.3-.2,1.8-2.3,3.6-4.7,5.3-7l3.3-4.5c.3-.3.2-.6-.1-1a13.01,13.01,0,0,0-3.5-3.1,12.394,12.394,0,1,0,1,20.7,12.3,12.3,0,0,0,4.8-13c-.1-.6-.4-1.2-.6-1.9a2.186,2.186,0,0,0-.5.3l-1.8,2.4a.6.6,0,0,0-.1.4c0,.7.1,1.3.1,2a9.258,9.258,0,0,1-16.3,5.7,9.176,9.176,0,0,1,.6-12.2,9.245,9.245,0,0,1,12.5-.8c.3.2.4.4.1.8-.7.9-1.4,1.9-2.1,2.8-1.3,1.6-2.5,3.3-3.9,5.1" fill="#005fe1"/>
        </g>
      </g>
    </g>
  </g>
</svg>
