<?xml version="1.0" encoding="UTF-8"?>
<svg width="24px" height="24px" viewBox="0 0 24 24" version="1.1" xmlns="http://www.w3.org/2000/svg" xmlns:xlink="http://www.w3.org/1999/xlink">
    <!-- Generator: sketchtool 61.2 (101010) - https://sketch.com -->
    <title>9D037652-CC55-40A6-A3C2-7511FC5BAA27</title>
    <desc>Created with sketchtool.</desc>
    <g id="Plugin-In-Screen" stroke="none" stroke-width="1" fill="none" fill-rule="evenodd">
        <g id="Signed-In---Settings" transform="translate(-40.000000, -478.000000)">
            <g id="Group-3" transform="translate(40.000000, 181.000000)">
                <g id="Group-2" transform="translate(0.000000, 297.000000)">
                    <g id="Group-5">
                        <rect id="Rectangle" fill="#F0F0F0" x="0" y="0" width="24" height="24" rx="2"></rect>
                        <g id="google-color" transform="translate(8.000000, 7.500000)" fill-rule="nonzero">
                            <path d="M1.84261364,4.5 C1.84261364,4.21419999 1.89008096,3.9402 1.97480113,3.68319999 L0.491897728,2.55080001 C0.202887784,3.13760001 0.0400568183,3.79880001 0.0400568183,4.5 C0.0400568183,5.20059999 0.2026875,5.8614 0.491296875,6.44780001 L1.97339916,5.31320001 C1.88948012,5.0574 1.84261364,4.7844 1.84261364,4.5" id="Fill-1" fill="#FBBC05"></path>
                            <path d="M4.44630682,1.89999999 C5.0671875,1.89999999 5.62798296,2.12000001 6.06860796,2.48000001 L7.35042613,1.2 C6.56931818,0.519999999 5.56789772,0.0999999999 4.44630682,0.0999999999 C2.70503692,0.0999999999 1.2085142,1.0958 0.491897728,2.55080001 L1.97480113,3.68319999 C2.31648579,2.646 3.29046733,1.89999999 4.44630682,1.89999999" id="Fill-2" fill="#EB4335"></path>
                            <path d="M4.44630683,7.10000001 C3.29046733,7.10000001 2.31648579,6.354 1.97480113,5.31680001 L0.491897728,6.44900001 C1.2085142,7.90419999 2.70503692,8.90000001 4.44630683,8.90000001 C5.52103125,8.90000001 6.54708666,8.51840001 7.31717897,7.80339999 L5.90958238,6.7152 C5.51241904,6.9654 5.01230966,7.10000001 4.44630683,7.10000001" id="Fill-3" fill="#34A853"></path>
                            <path d="M8.65227272,4.5 C8.65227272,4.23999999 8.61221591,3.96 8.55213067,3.69999999 L4.44630682,3.69999999 L4.44630682,5.4 L6.80965909,5.4 C6.69149147,5.9796 6.36983522,6.42519999 5.90958238,6.7152 L7.31717897,7.80339999 C8.12612642,7.05260001 8.65227272,5.93420001 8.65227272,4.5" id="Fill-4" fill="#4285F4"></path>
                        </g>
                    </g>
                </g>
            </g>
        </g>
    </g>
</svg>