<?xml version="1.0" encoding="UTF-8"?>
<svg width="18px" height="18px" viewBox="0 0 18 18" version="1.1" xmlns="http://www.w3.org/2000/svg" xmlns:xlink="http://www.w3.org/1999/xlink">
    <!-- Generator: sketchtool 61.2 (101010) - https://sketch.com -->
    <title>FB14725E-E871-486A-B881-B0AB4384E378</title>
    <desc>Created with sketchtool.</desc>
    <g id="Plugin-In-Screen" stroke="none" stroke-width="1" fill="none" fill-rule="evenodd">
        <g id="Sign-In" transform="translate(-143.000000, -399.000000)" fill-rule="nonzero">
            <g id="Group-5" transform="translate(40.000000, 103.000000)">
                <g id="Group-8" transform="translate(0.000000, 286.000000)">
                    <g id="Group-7" transform="translate(103.000000, 10.000000)">
                        <g id="google-color">
                            <path d="M3.68522727,9 C3.68522727,8.42839999 3.78016193,7.8804 3.94960226,7.36639999 L0.983795456,5.10160001 C0.405775568,6.27520001 0.0801136365,7.59760001 0.0801136365,9 C0.0801136365,10.4012 0.405375,11.7228 0.98259375,12.8956 L3.94679831,10.6264 C3.77896024,10.1148 3.68522727,9.5688 3.68522727,9" id="Fill-1" fill="#FBBC05"></path>
                            <path d="M8.89261365,3.79999999 C10.134375,3.79999999 11.2559659,4.24000001 12.1372159,4.96000001 L14.7008523,2.4 C13.1386363,1.04 11.1357954,0.2 8.89261365,0.2 C5.41007385,0.2 2.41702841,2.1916 0.983795456,5.10160001 L3.94960226,7.36639999 C4.63297159,5.292 6.58093466,3.79999999 8.89261365,3.79999999" id="Fill-2" fill="#EB4335"></path>
                            <path d="M8.89261365,14.2 C6.58093466,14.2 4.63297159,12.708 3.94960226,10.6336 L0.983795456,12.898 C2.41702841,15.8084 5.41007385,17.8 8.89261365,17.8 C11.0420625,17.8 13.0941733,17.0368 14.6343579,15.6068 L11.8191648,13.4304 C11.0248381,13.9308 10.0246193,14.2 8.89261365,14.2" id="Fill-3" fill="#34A853"></path>
                            <path d="M17.3045454,9 C17.3045454,8.47999999 17.2244318,7.92 17.1042613,7.39999999 L8.89261365,7.39999999 L8.89261365,10.8 L13.6193182,10.8 C13.3829829,11.9592 12.7396704,12.8504 11.8191648,13.4304 L14.6343579,15.6068 C16.2522528,14.1052 17.3045454,11.8684 17.3045454,9" id="Fill-4" fill="#4285F4"></path>
                        </g>
                    </g>
                </g>
            </g>
        </g>
    </g>
</svg>