<?xml version="1.0" encoding="UTF-8"?>
<svg width="18px" height="18px" viewBox="0 0 18 18" version="1.1" xmlns="http://www.w3.org/2000/svg" xmlns:xlink="http://www.w3.org/1999/xlink">
    <!-- Generator: sketchtool 61.2 (101010) - https://sketch.com -->
    <title>6989DBD1-8395-4919-9BCF-96D0198186C3</title>
    <desc>Created with sketchtool.</desc>
    <g id="Plugin-In-Screen" stroke="none" stroke-width="1" fill="none" fill-rule="evenodd" opacity="0.199999988">
        <g id="Sign-In" transform="translate(-130.000000, -587.000000)" fill="#000000" fill-rule="nonzero">
            <g id="Group-4" transform="translate(15.000000, 563.000000)">
                <g id="Group-3" transform="translate(90.000000, 24.000000)">
                    <g id="Group-14" transform="translate(25.000231, 0.000000)">
                        <g id="user-circle">
                            <path d="M9,3.48387097 C7.0766129,3.48387097 5.51612903,5.04435484 5.51612903,6.96774194 C5.51612903,8.89112903 7.0766129,10.4516129 9,10.4516129 C10.9233871,10.4516129 12.483871,8.89112903 12.483871,6.96774194 C12.483871,5.04435484 10.9233871,3.48387097 9,3.48387097 Z M9,8.70967742 C8.03830645,8.70967742 7.25806452,7.92943548 7.25806452,6.96774194 C7.25806452,6.00604839 8.03830645,5.22580645 9,5.22580645 C9.96169355,5.22580645 10.7419355,6.00604839 10.7419355,6.96774194 C10.7419355,7.92943548 9.96169355,8.70967742 9,8.70967742 Z M9,0 C4.02822581,0 0,4.02822581 0,9 C0,13.9717742 4.02822581,18 9,18 C13.9717742,18 18,13.9717742 18,9 C18,4.02822581 13.9717742,0 9,0 Z M9,16.2580645 C7.19637097,16.2580645 5.54879032,15.5939516 4.27862903,14.5016129 C4.81935484,13.6669355 5.74475806,13.1008065 6.80443548,13.0681452 C7.55927419,13.3004032 8.27782258,13.4165323 9,13.4165323 C9.72217742,13.4165323 10.4407258,13.3040323 11.1955645,13.0681452 C12.2552419,13.1044355 13.1806452,13.6669355 13.721371,14.5016129 C12.4512097,15.5939516 10.803629,16.2580645 9,16.2580645 Z M14.9044355,13.2060484 C14.0189516,12.0665323 12.6508065,11.3225806 11.0903226,11.3225806 C10.7201613,11.3225806 10.1467742,11.6709677 9,11.6709677 C7.85685484,11.6709677 7.27983871,11.3225806 6.90967742,11.3225806 C5.35282258,11.3225806 3.98467742,12.0665323 3.09556452,13.2060484 C2.24637097,12.0193548 1.74193548,10.5677419 1.74193548,9 C1.74193548,4.99717742 4.99717742,1.74193548 9,1.74193548 C13.0028226,1.74193548 16.2580645,4.99717742 16.2580645,9 C16.2580645,10.5677419 15.753629,12.0193548 14.9044355,13.2060484 Z" id="Shape"></path>
                        </g>
                    </g>
                </g>
            </g>
        </g>
    </g>
</svg>
