<?xml version="1.0" encoding="UTF-8"?>
<svg width="24px" height="24px" viewBox="0 0 24 24" version="1.1" xmlns="http://www.w3.org/2000/svg" xmlns:xlink="http://www.w3.org/1999/xlink">
    <!-- Generator: sketchtool 61.2 (101010) - https://sketch.com -->
    <title>74C3B451-AFF0-4736-97B2-6AFF9808557F</title>
    <desc>Created with sketchtool.</desc>
    <g id="Plugin-In-Screen" stroke="none" stroke-width="1" fill="none" fill-rule="evenodd">
        <g id="Signed-In---Settings" transform="translate(-40.000000, -127.000000)">
            <g id="Group-7" transform="translate(40.000000, 100.000000)">
                <g id="Group-2" transform="translate(0.000000, 27.000000)">
                    <g id="Group-5">
                        <rect id="Rectangle" fill="#F0F0F0" x="0" y="0" width="24" height="24" rx="2"></rect>
                        <path d="M12.0308153,12.6591996 C11.9101572,12.5786713 11.8297185,12.5384072 11.7090604,12.457879 C11.2666474,12.1760301 10.8644537,11.9344454 10.4220407,11.6525966 C10.1405052,11.4915401 10.1002858,11.4915401 9.97962769,11.7733889 C9.8589696,11.9747095 9.77853087,12.1760301 9.61765341,12.3370866 C9.49699531,12.5384072 9.53721468,12.6189354 9.7383115,12.7397278 C10.5024794,13.1826331 11.2666474,13.6255384 11.990596,14.0684437 C12.2319122,14.2295002 12.3525702,14.1892361 12.5134477,13.9879155 C13.2373963,13.0618407 13.9613449,12.0955019 14.6450741,11.1694271 C15.0874871,10.5654653 15.5299001,9.96150354 15.9723131,9.35754175 C16.0929712,9.23674939 16.0527519,9.11595703 15.9320938,8.95490055 C15.5299001,8.47173112 15.0874871,8.0288258 14.524416,7.70671285 C12.3927896,6.41826102 9.49699531,6.90143046 7.92844006,9.07569291 C6.27944609,11.3707477 6.88273657,14.7126697 9.29589848,16.2024421 C11.0655506,17.3298374 13.2373963,17.2493092 14.9266096,16.0413856 C16.5756036,14.8737261 17.3397715,12.820256 16.8571392,10.8070501 C16.8169198,10.5654653 16.6962617,10.3238806 16.615823,10.0420318 C16.5353842,10.0822959 16.4549455,10.12256 16.4147261,10.1628241 C16.17341,10.4849371 15.9320938,10.8070501 15.6907776,11.129163 C15.6505582,11.1694271 15.6505582,11.2499554 15.6505582,11.2902195 C15.6505582,11.5720683 15.6907776,11.813653 15.6907776,12.0955019 C15.6505582,13.5852743 14.6450741,14.9945185 13.2373963,15.4776879 C11.7090604,16.0011215 10.1002858,15.5582162 9.13502102,14.3905567 C7.96865943,12.9410484 8.04909816,10.8070501 9.37633722,9.47833411 C10.7437956,8.06908992 12.8352026,7.94829756 14.4037579,9.15622115 C14.524416,9.23674939 14.5646353,9.31727763 14.4439772,9.47833411 C14.1624417,9.84071118 13.8809061,10.2433524 13.5993706,10.6057295 C13.0765188,11.2499554 12.5938864,11.9344454 12.0308153,12.6591996" id="Fill-1" fill="#000000" fill-rule="nonzero"></path>
                    </g>
                </g>
            </g>
        </g>
    </g>
</svg>