<?xml version="1.0" encoding="UTF-8"?>
<svg width="23px" height="23px" viewBox="0 0 23 23" version="1.1" xmlns="http://www.w3.org/2000/svg" xmlns:xlink="http://www.w3.org/1999/xlink">
    <!-- Generator: sketchtool 61.2 (101010) - https://sketch.com -->
    <title>7810FCE9-25EC-4203-9840-DB100673E623</title>
    <desc>Created with sketchtool.</desc>
    <g id="Plugin-In-Screen" stroke="none" stroke-width="1" fill="none" fill-rule="evenodd">
        <g id="Sign-In" transform="translate(-35.000000, -31.000000)" fill="#BFBFBF" fill-rule="nonzero">
            <g id="Group-9" transform="translate(15.000000, 13.000000)">
                <g id="Group-8" transform="translate(20.000000, 17.000000)">
                    <g id="Group-6" transform="translate(0.000000, 1.004705)">
                        <path d="M11.5077651,12.9307772 C11.2317651,12.7467772 11.0477651,12.6547772 10.7717651,12.4707772 C9.75976514,11.8267772 8.83976514,11.2747772 7.82776514,10.6307772 C7.18376514,10.2627772 7.09176514,10.2627772 6.81576514,10.9067772 C6.53976514,11.3667772 6.35576514,11.8267772 5.98776514,12.1947772 C5.71176514,12.6547772 5.80376514,12.8387772 6.26376514,13.1147772 C8.01176514,14.1267772 9.75976514,15.1387772 11.4157651,16.1507772 C11.9677651,16.5187772 12.2437651,16.4267772 12.6117651,15.9667772 C14.2677651,13.8507772 15.9237651,11.6427772 17.4877651,9.52677719 C18.4997651,8.14677719 19.5117651,6.76677719 20.5237651,5.38677719 C20.7997651,5.11077719 20.7077651,4.83477719 20.4317651,4.46677719 C19.5117651,3.36277719 18.4997651,2.35077719 17.2117651,1.61477719 C12.3357651,-1.32922281 5.71176514,-0.225222807 2.12376514,4.74277719 C-1.64823486,9.98677719 -0.268234862,17.6227772 5.25176514,21.0267772 C9.29976514,23.6027772 14.2677651,23.4187772 18.1317651,20.6587772 C21.9037651,17.9907772 23.6517651,13.2987772 22.5477651,8.69877719 C22.4557651,8.14677719 22.1797651,7.59477719 21.9957651,6.95077719 C21.8117651,7.04277719 21.6277651,7.13477719 21.5357651,7.22677719 C20.9837651,7.96277719 20.4317651,8.69877719 19.8797651,9.43477719 C19.7877651,9.52677719 19.7877651,9.71077719 19.7877651,9.80277719 C19.7877651,10.4467772 19.8797651,10.9987772 19.8797651,11.6427772 C19.7877651,15.0467772 17.4877651,18.2667772 14.2677651,19.3707772 C10.7717651,20.5667772 7.09176514,19.5547772 4.88376514,16.8867772 C2.21576514,13.5747772 2.39976514,8.69877719 5.43576514,5.66277719 C8.56376514,2.44277719 13.3477651,2.16677719 16.9357651,4.92677719 C17.2117651,5.11077719 17.3037651,5.29477719 17.0277651,5.66277719 C16.3837651,6.49077719 15.7397651,7.41077719 15.0957651,8.23877719 C13.8997651,9.71077719 12.7957651,11.2747772 11.5077651,12.9307772" id="Fill-1"></path>
                    </g>
                </g>
            </g>
        </g>
    </g>
</svg>