<svg id="Layer_1" data-name="Layer 1" xmlns="http://www.w3.org/2000/svg" viewBox="0 0 16 15.98"><defs><style>.cls-1{fill:#005700;}</style></defs><title>logo-aprroved</title><g id="Plugin-In-Screen"><g id="Sign-In"><g id="Group-9"><g id="Group-8"><g id="Group-6"><path id="Fill-1" class="cls-1" d="M8.05,9l-.52-.32c-.7-.45-1.35-.83-2-1.28C5,7.18,5,7.18,4.77,7.63a4.62,4.62,0,0,1-.58.9c-.19.32-.13.45.19.64C5.6,9.88,6.83,10.59,8,11.3c.39.25.58.19.84-.13,1.16-1.48,2.32-3,3.41-4.51l2.13-2.89c.19-.2.12-.39-.07-.65a8.26,8.26,0,0,0-2.25-2,8,8,0,1,0,.64,13.32,7.92,7.92,0,0,0,3.09-8.37c-.06-.38-.26-.77-.38-1.22a2.25,2.25,0,0,0-.33.19L13.91,6.6c-.07.06-.07.19-.07.26,0,.45.07.83.07,1.28A6,6,0,0,1,10,13.55a5.92,5.92,0,0,1-6.56-1.74A5.9,5.9,0,0,1,3.8,4a6,6,0,0,1,8.05-.51c.19.12.25.25.06.51-.45.58-.9,1.22-1.35,1.8C9.72,6.79,9,7.89,8.05,9" transform="translate(0 0)"/></g></g></g></g></g></svg>