<?xml version="1.0" encoding="UTF-8"?>
<svg width="16px" height="16px" viewBox="0 0 16 16" version="1.1" xmlns="http://www.w3.org/2000/svg" xmlns:xlink="http://www.w3.org/1999/xlink">
    <!-- Generator: sketchtool 61.2 (101010) - https://sketch.com -->
    <title>7733F726-B71A-4E86-97C3-8C3CF804D0DC</title>
    <desc>Created with sketchtool.</desc>
    <g id="Plugin-V2" stroke="none" stroke-width="1" fill="none" fill-rule="evenodd">
        <g id="Protected" transform="translate(-35.000000, -89.000000)" fill="#0037F6" fill-rule="nonzero">
            <g id="Group" transform="translate(15.000000, 13.000000)">
                <g id="Group-21" transform="translate(0.000000, 60.000000)">
                    <g id="Group-20" transform="translate(20.000000, 13.000000)">
                        <g id="ios-search" transform="translate(0.000000, 3.000000)">
                            <path d="M15.7714286,14.8446753 L11.332987,10.3646753 C12.2015584,9.27584416 12.7251948,7.8961039 12.7251948,6.39584416 C12.7251948,2.88415584 9.87844156,0.0374025974 6.3625974,0.0374025974 C2.84675325,0.0374025974 0,2.88831169 0,6.4 C0,9.91168831 2.84675325,12.7584416 6.3625974,12.7584416 C7.88363636,12.7584416 9.27584416,12.2264935 10.372987,11.3371429 L14.7823377,15.7880519 C14.9153247,15.9293506 15.0981818,16 15.2768831,16 C15.4472727,16 15.6176623,15.9376623 15.7464935,15.812987 C16.0207792,15.5511688 16.0290909,15.118961 15.7714286,14.8446753 Z M6.3625974,11.3911688 C5.02857143,11.3911688 3.77350649,10.8716883 2.83012987,9.92831169 C1.88675325,8.98493506 1.36727273,7.72987013 1.36727273,6.4 C1.36727273,5.06597403 1.88675325,3.81090909 2.83012987,2.87168831 C3.77350649,1.92831169 5.02857143,1.40883117 6.3625974,1.40883117 C7.69662338,1.40883117 8.95168831,1.92831169 9.89506494,2.87168831 C10.8384416,3.81506494 11.3579221,5.07012987 11.3579221,6.4 C11.3579221,7.73402597 10.8384416,8.98909091 9.89506494,9.92831169 C8.95168831,10.8716883 7.69662338,11.3911688 6.3625974,11.3911688 Z" id="Shape"></path>
                        </g>
                    </g>
                </g>
            </g>
        </g>
    </g>
</svg>
