<?xml version="1.0" encoding="UTF-8"?>
<svg width="20px" height="20px" viewBox="0 0 20 20" version="1.1" xmlns="http://www.w3.org/2000/svg" xmlns:xlink="http://www.w3.org/1999/xlink">
    <!-- Generator: sketchtool 61.2 (101010) - https://sketch.com -->
    <title>377943DE-CE68-4CB0-A64C-F849BCDED6B9</title>
    <desc>Created with sketchtool.</desc>
    <g id="Plugin-In-Screen" stroke="none" stroke-width="1" fill="none" fill-rule="evenodd">
        <g id="Sign-In" transform="translate(-299.000000, -585.000000)" fill="#0037F6" fill-rule="nonzero">
            <g id="Group-4" transform="translate(15.000000, 563.000000)">
                <g id="settings-outline" transform="translate(283.000000, 21.000000)">
                    <rect id="Rectangle" opacity="0" x="0" y="0" width="22" height="22"></rect>
                    <path d="M7.8925,20.1666667 C7.44518826,20.1640259 7.01085974,20.0160325 6.655,19.745 L4.7575,18.3333333 C3.84832901,17.6244693 3.65117491,16.3288852 4.30833333,15.3816667 C4.64804211,14.8800574 4.72645748,14.2459157 4.51916667,13.6766667 L4.46416667,13.53 C4.31985585,13.0148357 3.93847428,12.5994022 3.4375,12.4116667 L3.29083333,12.4116667 C2.17645351,12.0369428 1.57139035,10.834993 1.93416667,9.71666667 L2.68583333,7.33333333 C2.82581788,6.77468646 3.20001777,6.30359553 3.7125,6.04083333 C4.18921771,5.79520722 4.74571074,5.75545772 5.2525,5.93083333 C5.80689097,6.11741277 6.41766906,6.01790398 6.88416667,5.665 L7.00333333,5.57333333 C7.42461264,5.23718377 7.67071681,4.72811899 7.6725,4.18916667 L7.6725,3.96916667 C7.66737043,2.80172868 8.60431487,1.84841839 9.77166667,1.83333333 L12.1091667,1.83333333 C12.6602864,1.83481851 13.1880993,2.05584018 13.5758333,2.4475 C13.9794368,2.8579752 14.2036267,3.41185623 14.1991667,3.9875 L14.1991667,4.24416667 C14.1897335,4.75679168 14.4245215,5.24338132 14.8316667,5.555 L14.9325,5.62833333 C15.3500744,5.94146428 15.8944348,6.03047918 16.39,5.86666667 L16.7016667,5.76583333 C17.2351967,5.58897629 17.8176888,5.63650101 18.3154945,5.89750329 C18.8133002,6.15850558 19.1836849,6.61057952 19.3416667,7.15 L20.0658333,9.46 C20.4140688,10.569466 19.8229524,11.7557477 18.7275,12.1458333 L18.5441667,12.21 C17.9966113,12.3892978 17.5740159,12.8290718 17.4166667,13.3833333 C17.2690153,13.8968072 17.3527028,14.4491446 17.6458333,14.8958333 L17.8841667,15.2441667 C18.5403643,16.1965769 18.339282,17.495569 17.4258333,18.205 L15.5833333,19.6258333 C15.1334242,19.969906 14.5613718,20.1128554 14.0024958,20.0208665 C13.4436199,19.9288776 12.9475625,19.6101214 12.6316667,19.14 L12.5216667,18.9841667 C12.2164983,18.525558 11.6973624,18.2556073 11.1466667,18.2691667 C10.6223771,18.282744 10.1357683,18.5447641 9.83583333,18.975 L9.625,19.2775 C9.30899664,19.7509246 8.81139192,20.0727089 8.25,20.1666667 C8.13111789,20.1783132 8.01138211,20.1783132 7.8925,20.1666667 Z M4.03333333,10.6516667 C5.08306751,11.025984 5.89273015,11.87647 6.215,12.9433333 L6.215,13.0533333 C6.61656274,14.1628586 6.45963185,15.3978365 5.79333333,16.3716667 C5.67323251,16.5043596 5.67323251,16.7064738 5.79333333,16.8391667 L7.76416667,18.3333333 C7.81618755,18.3741946 7.88332762,18.3905837 7.94832457,18.378287 C8.01332152,18.3659903 8.06983443,18.3262073 8.10333333,18.2691667 L8.31416667,17.9666667 C8.95962177,17.0340311 10.0216282,16.4774839 11.1558333,16.4774839 C12.2900385,16.4774839 13.3520449,17.0340311 13.9975,17.9666667 L14.1075,18.1316667 C14.1469055,18.1875779 14.2057336,18.2267967 14.2725,18.2416667 C14.3343776,18.2507972 14.3972986,18.234239 14.4466667,18.1958333 L16.335,16.7658333 C16.4722501,16.6568936 16.5004236,16.4596788 16.3991667,16.3166667 L16.1608333,15.9683333 C15.5318035,15.0511002 15.3530964,13.8979334 15.675,12.8333333 C16.0019095,11.7123453 16.853128,10.8201042 17.9575,10.4408333 L18.1408333,10.3766667 C18.2998861,10.3129525 18.3776809,10.1327961 18.315,9.97333333 L17.6,7.69083333 C17.5653098,7.61012718 17.4990446,7.5471752 17.4166667,7.51666667 C17.3619307,7.4889017 17.2972359,7.4889017 17.2425,7.51666667 L16.9308333,7.6175 C15.8606044,7.97071813 14.685132,7.77537724 13.7866667,7.095 L13.75,7.0125 C12.8890045,6.36045929 12.3834341,5.34253235 12.3841667,4.2625 L12.3841667,3.97833333 C12.3858261,3.8899808 12.3529371,3.80446926 12.2925,3.74 C12.2397636,3.69233981 12.1710801,3.66617467 12.1,3.66665985 L9.77166667,3.66665985 C9.69624285,3.67137512 9.62580101,3.70593266 9.57591573,3.76269867 C9.52603044,3.81946468 9.50081098,3.8937631 9.50583333,3.96916667 L9.50583333,4.19833333 C9.50594839,5.30752533 8.9912063,6.35394181 8.1125,7.03083333 L7.99333333,7.1225 C7.0434619,7.8457063 5.79585126,8.04848599 4.66583333,7.66333333 C4.6241968,7.6493591 4.57913654,7.6493591 4.5375,7.66333333 C4.48576665,7.69476166 4.44680569,7.74346287 4.4275,7.80083333 L3.66666667,10.1933333 C3.61153262,10.3627268 3.70079226,10.5453033 3.86833333,10.6058333 L4.03333333,10.6516667 Z" id="Shape"></path>
                    <path d="M11,14.2083333 C9.7023503,14.2083333 8.53247554,13.426648 8.0358865,12.227776 C7.53929746,11.028904 7.81378884,9.64894265 8.73136574,8.73136574 C9.64894265,7.81378884 11.028904,7.53929746 12.227776,8.0358865 C13.426648,8.53247554 14.2083333,9.7023503 14.2083333,11 C14.2083333,12.7719136 12.7719136,14.2083333 11,14.2083333 L11,14.2083333 Z M11,9.625 C10.2406085,9.625 9.625,10.2406085 9.625,11 C9.625,11.7593915 10.2406085,12.375 11,12.375 C11.7593915,12.375 12.375,11.7593915 12.375,11 C12.375,10.2406085 11.7593915,9.625 11,9.625 Z" id="Shape"></path>
                </g>
            </g>
        </g>
    </g>
</svg>
