<?xml version="1.0" encoding="UTF-8"?>
<svg width="14px" height="14px" viewBox="0 0 14 14" version="1.1" xmlns="http://www.w3.org/2000/svg" xmlns:xlink="http://www.w3.org/1999/xlink">
    <!-- Generator: sketchtool 61.2 (101010) - https://sketch.com -->
    <title>100073AD-D26A-4E52-801F-9F627F977102</title>
    <desc>Created with sketchtool.</desc>
    <g id="Onboarding" stroke="none" stroke-width="1" fill="none" fill-rule="evenodd">
        <g id="Welcome-Start" transform="translate(-559.000000, -651.000000)" fill="#000000" fill-rule="nonzero">
            <g id="Group-2" transform="translate(559.000000, 647.000000)">
                <g id="time" transform="translate(0.000000, 4.000000)">
                    <path d="M7,0 C10.86596,0 14,3.134005 14,7 C14,10.86596 10.86596,14 7,14 C3.134005,14 0,10.86596 0,7 C0,3.134005 3.134005,0 7,0 Z M7,1.4 C3.907204,1.4 1.4,3.907204 1.4,7 C1.4,10.09281 3.907204,12.6 7,12.6 C10.09281,12.6 12.6,10.09281 12.6,7 C12.6,3.907204 10.09281,1.4 7,1.4 Z M6.3,3.5 L6.3,7 L9.8,7 L9.8,8.4 L4.9,8.4 L4.9,3.5 L6.3,3.5 Z" id="Combined-Shape"></path>
                </g>
            </g>
        </g>
    </g>
</svg>