<?xml version="1.0" encoding="UTF-8"?>
<svg width="24px" height="24px" viewBox="0 0 24 24" version="1.1" xmlns="http://www.w3.org/2000/svg" xmlns:xlink="http://www.w3.org/1999/xlink">
    <!-- Generator: sketchtool 61.2 (101010) - https://sketch.com -->
    <title>DE4C3D37-EE50-4E7C-BCA1-6FF35234C47B</title>
    <desc>Created with sketchtool.</desc>
    <g id="Plugin-In-Screen" stroke="none" stroke-width="1" fill="none" fill-rule="evenodd">
        <g id="Signed-In---Settings" transform="translate(-40.000000, -298.000000)">
            <g id="Group-3" transform="translate(40.000000, 181.000000)">
                <g id="Group-2" transform="translate(0.000000, 117.000000)">
                    <g id="Group-5">
                        <rect id="Rectangle" fill="#DFFFF5" x="0" y="0" width="24" height="24" rx="2"></rect>
                        <g id="tripadvisor" transform="translate(6.000000, 8.000000)" fill="#000000" fill-rule="nonzero">
                            <path d="M5.98596491,-4.4408921e-16 C7.52748538,-4.4408921e-16 9.19064327,0.678362573 10.1918129,1.49239766 L10.1918129,1.49239766 L11.9789474,1.49239766 L11.097076,2.36725146 C11.6421053,2.90994152 11.9812865,3.66081871 11.9836257,4.48888889 C11.9836257,6.14502924 10.6409357,7.4877193 8.98479532,7.4877193 C8.21754386,7.4877193 7.52046784,7.2 6.98947368,6.72748538 L6.98947368,6.72748538 L7.00116959,6.75555556 L5.99766082,7.48538012 L4.98245614,6.73918129 C4.45380117,7.20701754 3.75906433,7.49005848 2.99883041,7.49005848 C1.34269006,7.49005848 5.72875081e-13,6.14736842 5.72875081e-13,4.49122807 C5.72875081e-13,3.66081871 0.336842105,2.90994152 0.881871345,2.36725146 L0.881871345,2.36725146 L5.72875081e-13,1.49239766 L1.79181287,1.49239766 C2.79298246,0.678362573 4.44210526,-4.4408921e-16 5.98596491,-4.4408921e-16 Z M2.99883041,2.24093567 C1.75672515,2.24093567 0.748538012,3.24912281 0.748538012,4.49122807 C0.748538012,5.73333333 1.75438596,6.74152047 2.99883041,6.74152047 C4.24093567,6.74152047 5.24678363,5.73333333 5.24912281,4.49122807 C5.24912281,3.24912281 4.24093567,2.24093567 2.99883041,2.24093567 Z M8.9871345,2.24093567 C7.74502924,2.24093567 6.73684211,3.24912281 6.73684211,4.49122807 C6.73684211,5.73333333 7.74502924,6.74152047 8.9871345,6.74152047 C10.2292398,6.74152047 11.2350877,5.73333333 11.2374269,4.49122807 C11.2374269,3.24912281 10.2292398,2.24093567 8.9871345,2.24093567 Z M8.9871345,2.99181287 C9.24787632,2.99181287 9.49307905,3.05837586 9.70667632,3.17543551 C10.1794581,3.42840489 10.500451,3.92638419 10.4988365,4.4994152 C10.4988365,5.32748538 9.82748538,5.99883041 8.9994152,5.99883041 C8.70498059,5.99883041 8.43036043,5.91395356 8.19868878,5.76733393 C7.77224766,5.50297455 7.4877193,5.03031281 7.4877193,4.49122807 C7.4877193,3.66315789 8.15906433,2.99181287 8.9871345,2.99181287 Z M2.99883041,2.99181287 C3.82690058,2.99181287 4.49824561,3.66315789 4.49591253,4.49122807 C4.49591253,5.31929825 3.8245614,5.99064327 2.99649123,5.99064327 C2.16842105,5.99064327 1.49707602,5.31929825 1.49707602,4.49122807 C1.49707602,3.66315789 2.16842105,2.99181287 2.99883041,2.99181287 Z M5.98596491,0.748538012 C4.99181287,0.748538012 4.07953216,1.00116959 3.36374269,1.51578947 C4.78830409,1.68888889 5.90409357,2.86081871 5.99064327,4.31111111 C6.0748538,2.86315789 7.18830409,1.69356725 8.60818713,1.51578947 C7.89239766,1.00116959 6.98011696,0.748538012 5.98596491,0.748538012 Z" id="Combined-Shape"></path>
                        </g>
                    </g>
                </g>
            </g>
        </g>
    </g>
</svg>