<?xml version="1.0" encoding="UTF-8"?>
<svg width="22px" height="14px" viewBox="0 0 22 14" version="1.1" xmlns="http://www.w3.org/2000/svg" xmlns:xlink="http://www.w3.org/1999/xlink">
    <!-- Generator: sketchtool 53.2 (72643) - https://sketchapp.com -->
    <title>05ADD342-8695-47DE-9922-0DC0626DA1A1</title>
    <desc>Created with sketchtool.</desc>
    <g id="Page-1" stroke="none" stroke-width="1" fill="none" fill-rule="evenodd" stroke-linecap="round" stroke-linejoin="round">
        <g id="M_Login" transform="translate(-463.000000, -606.000000)" stroke="#9EA0A5" stroke-width="1.5">
            <g id="Dialog---5-Col-Centered" transform="translate(125.000000, 317.000000)">
                <g id="Input-w/-Label" transform="translate(0.000000, 243.000000)">
                    <g id="Input/Default/38px" transform="translate(0.000000, 31.000000)">
                        <g id="Input">
                            <g id="view-1" transform="translate(339.000000, 16.250000)">
                                <path d="M10,0.209166667 C6.64083333,0.1525 3.16666667,2.5 0.9825,4.90416667 C0.507652764,5.43133562 0.507652764,6.23199771 0.9825,6.75916667 C3.11916667,9.1125 6.58333333,11.5141667 10,11.4566667 C13.4166667,11.5141667 16.8816667,9.1125 19.02,6.75916667 C19.4948472,6.23199771 19.4948472,5.43133562 19.02,4.90416667 C16.8333333,2.5 13.3591667,0.1525 10,0.209166667 Z" id="Path"></path>
                                <path d="M13.125,5.83333333 C13.1245398,7.55911462 11.7252259,8.95780674 9.99944459,8.95749995 C8.27366327,8.95719317 6.87484676,7.55800364 6.87500012,5.8322223 C6.87515349,4.10644095 8.27421865,2.70750006 10,2.7075 C10.8290137,2.70727875 11.6241246,3.03656224 12.2102477,3.62284165 C12.7963708,4.20912106 13.1254423,5.00431968 13.125,5.83333333 L13.125,5.83333333 Z" id="Path"></path>
                            </g>
                        </g>
                    </g>
                </g>
            </g>
        </g>
    </g>
</svg>