<?xml version="1.0" encoding="UTF-8"?>
<svg width="22px" height="14px" viewBox="0 0 22 14" version="1.1" xmlns="http://www.w3.org/2000/svg" xmlns:xlink="http://www.w3.org/1999/xlink">
    <!-- Generator: sketchtool 53.2 (72643) - https://sketchapp.com -->
    <title>4AF80EE1-00D4-4CEA-8CDA-1453565FDCB8</title>
    <desc>Created with sketchtool.</desc>
    <g id="Page-1" stroke="none" stroke-width="1" fill="none" fill-rule="evenodd" stroke-linecap="round" stroke-linejoin="round">
        <g id="M_Login" transform="translate(-436.000000, -606.000000)" stroke="#9EA0A5" stroke-width="1.5">
            <g id="Dialog---5-Col-Centered" transform="translate(125.000000, 317.000000)">
                <g id="Input-w/-Label" transform="translate(0.000000, 243.000000)">
                    <g id="Input/Default/38px" transform="translate(0.000000, 31.000000)">
                        <g id="Input">
                            <g id="view-off" transform="translate(312.000000, 16.000000)">
                                <path d="M5,10.5 L14.5,1.5" id="Path"></path>
                                <path d="M7.47,11.3758333 C8.28901213,11.6301896 9.14242378,11.7564023 10,11.75 C13.4166667,11.8075 16.8816667,9.40583333 19.02,7.0525 C19.4948472,6.52533105 19.4948472,5.72466895 19.02,5.1975 C18.2453419,4.3476753 17.3871293,3.57796409 16.4583333,2.9" id="Path"></path>
                                <path d="M12.0108333,0.735 C11.3532946,0.571373561 10.6775493,0.492401255 10,0.5 C6.64083333,0.444166667 3.16666667,2.79333333 0.9825,5.19583333 C0.507652764,5.72300229 0.507652764,6.52366438 0.9825,7.05083333 C1.64660378,7.77783123 2.37144801,8.44691822 3.14916667,9.05083333" id="Path"></path>
                                <path d="M6.87499989,6.125 C6.87477888,5.2961307 7.203948,4.50114624 7.79004712,3.91504712 C8.37614624,3.328948 9.1711307,2.99977888 10,2.99999989" id="Path"></path>
                                <path d="M13.1250001,6.12416667 L13.1250001,6.12416667 C13.1252211,6.95311257 12.7960785,7.74818265 12.2100034,8.33441408 C11.6239282,8.92064551 10.8289459,9.25000003 10,9.25" id="Path"></path>
                            </g>
                        </g>
                    </g>
                </g>
            </g>
        </g>
    </g>
</svg>