<?xml version="1.0" encoding="UTF-8"?>
<svg width="24px" height="24px" viewBox="0 0 24 24" version="1.1" xmlns="http://www.w3.org/2000/svg" xmlns:xlink="http://www.w3.org/1999/xlink">
    <!-- Generator: sketchtool 61.2 (101010) - https://sketch.com -->
    <title>0E499A85-BAD9-4D2D-AF9A-87AA4C1596EE</title>
    <desc>Created with sketchtool.</desc>
    <g id="Plugin-In-Screen" stroke="none" stroke-width="1" fill="none" fill-rule="evenodd">
        <g id="Signed-In---Settings" transform="translate(-40.000000, -253.000000)">
            <g id="Group-3" transform="translate(40.000000, 181.000000)">
                <g id="Group-2" transform="translate(0.000000, 72.000000)">
                    <g id="Group-5">
                        <rect id="Rectangle" fill="#FEFFE5" x="0" y="0" width="24" height="24" rx="2"></rect>
                        <path d="M12.0409728,6.5 C11.6104127,6.5 11.2681872,6.73369135 11.2681872,7.01818465 L11.5296709,9.89592256 C11.5585365,10.0693004 11.7770503,10.2030373 12.041218,10.2030373 C12.3059073,10.2027013 12.5236575,10.0690804 12.5531295,9.89592256 L12.8158578,7.01818465 C12.8158578,6.73371579 12.4726769,6.5 12.0415008,6.5 L12.0409728,6.5 Z M7.77980944,8.8083848 C7.55628299,8.81353952 7.30236052,8.97802392 7.1408392,9.2502077 C6.92482377,9.61264495 6.96310164,10.0176737 7.21584875,10.1597676 L9.9104477,11.3794173 C10.0787824,11.4402697 10.3074062,11.3240813 10.4397949,11.1022486 C10.4398137,11.1022179 10.4397767,11.102157 10.4397949,11.1021265 C10.5727995,10.8791991 10.5625041,10.6285432 10.4224856,10.5173605 L7.98879218,8.85829483 C7.92558654,8.82271392 7.85448649,8.80670301 7.77997349,8.80842084 L7.77980944,8.8083848 Z M16.3021362,8.8083848 C16.2276421,8.80666635 16.1566489,8.82267788 16.0935627,8.85825879 L13.659555,10.5173245 C13.5203655,10.628501 13.510045,10.8791691 13.6423689,11.1020904 L13.6424946,11.1022126 C13.7753735,11.3240465 14.0032557,11.4402324 14.1715966,11.3793813 L16.8673898,10.1597927 C17.1211866,10.0176988 17.15756,9.61268832 16.943009,9.25023275 C16.7807586,8.97804286 16.526415,8.81356579 16.3029074,8.80840984 L16.3021362,8.8083848 Z M10.0111141,12.6051515 C9.97625485,12.6046933 9.94245907,12.6099275 9.91081854,12.6214978 L7.21621959,13.8396813 C6.96347876,13.9823984 6.92520089,14.3875799 7.14121004,14.750402 C7.35657179,15.1121245 7.73617643,15.2840911 7.98898011,15.1422354 L10.4228621,13.4844526 C10.5629,13.3719138 10.5732332,13.1213251 10.4401714,12.8986176 L10.4412776,12.8991063 C10.3336973,12.7177014 10.1621822,12.6071112 10.0111198,12.6051136 L10.0111141,12.6051515 Z M14.0720258,12.6051515 C13.9211393,12.6071491 13.7499637,12.7177392 13.6421194,12.8991442 L13.6430999,12.8986555 C13.5106924,13.121363 13.5209438,13.3719516 13.6601634,13.4844905 L16.0941711,15.1422733 C16.3465034,15.284129 16.7264788,15.1121678 16.9428211,14.7504398 C17.1573721,14.3876055 17.1209986,13.982424 16.8672019,13.8397192 L14.1722258,12.6215357 C14.1405872,12.6099653 14.1068706,12.6047282 14.0720497,12.6051894 L14.0720258,12.6051515 Z M12.0405957,13.7977997 C11.7768744,13.7981051 11.5588602,13.9312739 11.5300355,14.1041996 L11.2685517,16.9818154 C11.2685517,17.2667851 11.610771,17.5 12.0413374,17.5 C12.472702,17.5 12.8155687,17.266779 12.8155687,16.9818154 L12.5534752,14.1041996 C12.5240025,13.9312739 12.306253,13.7981296 12.0415637,13.7977997 L12.0405831,13.7977997 L12.0405957,13.7977997 Z" id="Shape" fill="#FFC220" fill-rule="nonzero" transform="translate(12.041667, 12.000000) scale(-1, 1) rotate(-180.000000) translate(-12.041667, -12.000000) "></path>
                    </g>
                </g>
            </g>
        </g>
    </g>
</svg>