<?xml version="1.0" encoding="UTF-8"?>
<svg width="14px" height="15px" viewBox="0 0 14 15" version="1.1" xmlns="http://www.w3.org/2000/svg" xmlns:xlink="http://www.w3.org/1999/xlink">
    <!-- Generator: sketchtool 61.2 (101010) - https://sketch.com -->
    <title>9EB8C73B-1031-478B-A69A-E5097BEC34D1</title>
    <desc>Created with sketchtool.</desc>
    <g id="Plugin-In-Screen" stroke="none" stroke-width="1" fill="none" fill-rule="evenodd">
        <g id="Protected" transform="translate(-386.000000, -269.000000)" fill="#FFFFFF" fill-rule="nonzero">
            <g id="Group" transform="translate(15.000000, 13.000000)">
                <g id="Group-11" transform="translate(15.000000, 125.000000)">
                    <g id="icon-trash" transform="translate(356.000000, 131.000000)">
                        <path d="M2.72795455,12.9531818 C2.72795455,13.3254545 3.03340909,13.6363636 3.41113636,13.6363636 L3.41113636,13.6363636 L10.2259091,13.6363636 C10.5981818,13.6363636 10.9090909,13.3309091 10.9090909,12.9531818 L10.9090909,12.9531818 L10.9097727,5.45454545 L12.2727273,5.45454545 L12.2727273,12.9525 C12.2727273,14.0836364 11.3611364,15 10.2211364,15 L3.41590909,15 C2.28272727,15 1.36431818,14.085 1.36431818,12.9525 L1.36431818,5.45454545 L2.72795455,5.45454545 Z M4.77272727,2.04545455 C4.77272727,1.66909091 5.08022727,1.36363636 5.44840909,1.36363636 L8.18795455,1.36363636 C8.56090909,1.36363636 8.86363636,1.66636364 8.86363636,2.04545455 C8.86363636,2.42181818 8.55613636,2.72727273 8.18795455,2.72727273 L5.44840909,2.72727273 C5.07545455,2.72727273 4.77272727,2.42454545 4.77272727,2.04545455 Z M4.77272727,6.81613636 C4.77272727,6.44045455 5.07545455,6.13636364 5.45454545,6.13636364 C5.83090909,6.13636364 6.13636364,6.44522727 6.13636364,6.81613636 L6.13636364,10.9111364 C6.13636364,11.2868182 5.83363636,11.5909091 5.45454545,11.5909091 C5.07818182,11.5909091 4.77272727,11.2820455 4.77272727,10.9111364 L4.77272727,6.81613636 Z M7.5,6.81613636 C7.5,6.44045455 7.80272727,6.13636364 8.18181818,6.13636364 C8.55818182,6.13636364 8.86363636,6.44522727 8.86363636,6.81613636 L8.86363636,10.9111364 C8.86363636,11.2868182 8.56090909,11.5909091 8.18181818,11.5909091 C7.80545455,11.5909091 7.5,11.2820455 7.5,10.9111364 L7.5,6.81613636 Z M3.40909091,2.72727273 L0.676363636,2.72727273 C0.310909091,2.72727273 0,3.03272727 0,3.40909091 C0,3.78818182 0.302727273,4.09090909 0.676363636,4.09090909 L12.96,4.09090909 C13.3254545,4.09090909 13.6363636,3.78545455 13.6363636,3.40909091 C13.6363636,3.03 13.3336364,2.72727273 12.96,2.72727273 L10.2272727,2.72727273 L10.2272727,2.04545455 C10.2272727,0.918409091 9.31159091,0 8.18181818,0 L5.45522727,0 C4.32886364,0 3.40977273,0.915681818 3.40977273,2.04545455 L3.40977273,2.72727273 L3.40909091,2.72727273 Z" id="Shape"></path>
                    </g>
                </g>
            </g>
        </g>
    </g>
</svg>
