<?xml version="1.0" encoding="UTF-8"?>
<svg width="24px" height="24px" viewBox="0 0 24 24" version="1.1" xmlns="http://www.w3.org/2000/svg" xmlns:xlink="http://www.w3.org/1999/xlink">
    <!-- Generator: sketchtool 61.2 (101010) - https://sketch.com -->
    <title>E73FB3F5-93D2-4737-B94E-395710B70804</title>
    <desc>Created with sketchtool.</desc>
    <g id="Plugin-In-Screen" stroke="none" stroke-width="1" fill="none" fill-rule="evenodd">
        <g id="Signed-In---Settings" transform="translate(-40.000000, -388.000000)">
            <g id="Group-3" transform="translate(40.000000, 181.000000)">
                <g id="Group-2" transform="translate(0.000000, 207.000000)">
                    <g id="Group-10">
                        <g id="Group-5" fill="#FFE5E5">
                            <rect id="Rectangle" x="0" y="0" width="24" height="24" rx="2"></rect>
                        </g>
                        <path d="M11.0299642,11.7206594 L10.9699471,11.7521665 L10.9261879,11.770202 C10.8025046,11.8133525 10.571591,11.8273637 10.2314438,11.4836787 L10.1659169,11.4144016 L9.36321489,10.5133327 C8.45612647,9.48428391 7.19150671,8.03068955 7.12044128,7.93016027 C7.04190366,7.79301773 7.04931237,7.63155177 7.13995147,7.48006005 C7.41996632,7.01594677 9.23975939,5.99185945 9.77462185,6 C9.94764253,6.00342371 10.0874831,6.08080383 10.1583221,6.20253649 L10.2545655,6.6059585 C10.5154867,7.74030435 11.2089751,10.8597049 11.2089751,10.8597049 C11.3480485,11.4470594 11.1612032,11.6375709 11.0480689,11.7096883 L11.0299642,11.7206594 Z M10.4332449,13.7544927 L10.4528951,13.7594917 L10.3857922,13.7928253 L10.3007213,13.8400596 L10.3007213,13.8400596 L8.32889187,15.0337326 L8.11147632,15.1587847 C7.99266678,15.224297 7.96021594,15.2340756 7.92496585,15.2413721 C7.7958115,15.2667304 7.66964217,15.2277696 7.56426679,15.1314503 L7.50810635,15.0743546 C7.1880927,14.6795426 6.88527545,13.1228887 7.0431318,12.6630801 C7.09311108,12.5214368 7.18584727,12.4225503 7.30997431,12.379851 L7.36506036,12.3650304 C7.41883309,12.3536235 7.4738913,12.353582 7.86902899,12.4110111 L10.2418695,12.7727221 C10.447636,12.7926494 10.6109384,12.9528673 10.6585981,13.1825107 C10.7081802,13.4202454 10.6194261,13.6491916 10.4332449,13.7544927 Z M15.2036404,11.2656193 L13.0763448,12.3638783 C12.8978702,12.469946 12.6716881,12.435001 12.4956678,12.2774875 C12.3317978,12.1304419 12.2650962,11.9193311 12.3227308,11.7315754 L12.3477946,11.6665073 L13.2634527,9.48711036 C13.421734,9.1191435 13.4582301,9.05563172 13.4942779,9.01619804 L13.5020397,9.00801433 C13.6042173,8.89736357 13.7522141,8.85643661 13.9209778,8.8933393 C14.2820065,8.9767658 15.0404166,9.61796599 15.4567044,10.1306435 C15.5930268,10.300895 15.6931341,10.4565228 15.7289088,10.5732647 C15.7789175,10.7343144 15.7483907,10.8903979 15.6458279,11.0006635 L15.6179652,11.0280865 L15.5765364,11.0585291 C15.5220038,11.0945583 15.4205464,11.1514075 15.2036404,11.2656193 Z M12.4213355,17.9209896 C11.9684433,18.1158359 10.3643313,17.9244106 9.9691208,17.6286743 C9.84879535,17.5387115 9.78336218,17.4192158 9.78003849,17.2908356 L9.78243772,17.2353318 C9.79458774,17.1499058 9.8163423,17.0952001 10.4435687,15.8540111 L11.0639822,14.621192 C11.1473198,14.4323251 11.3516131,14.3258582 11.5847373,14.3500096 C11.8255689,14.3733862 12.0162323,14.5316626 12.0612005,14.7501322 L12.5785237,16.9430588 L12.6576176,17.3029021 C12.6967786,17.4934541 12.6989902,17.5427879 12.6939604,17.5836607 C12.6757673,17.7351134 12.5785948,17.8538538 12.4213355,17.9209896 Z M15.5004686,16.1567352 C15.359763,16.2543048 15.2059974,16.2740406 15.0692321,16.2105315 L15.0250548,16.1849603 C14.9395578,16.1256137 14.7457624,15.9377173 13.7880114,14.9859366 L12.9805659,14.1866391 C12.8253432,14.0499233 12.7869307,13.822587 12.8822277,13.608666 C12.9713167,13.4082356 13.1524055,13.2794117 13.3470055,13.2752187 L13.4160699,13.2786295 L15.6579233,13.463206 L16.0169348,13.4975507 C16.2073002,13.5182413 16.25678,13.5308661 16.2941767,13.5474665 L16.304173,13.5521015 C16.3577233,13.5771204 16.4058724,13.6137028 16.4432263,13.6603101 C16.4975253,13.7261758 16.5294626,13.8128625 16.5398129,13.9134335 C16.5815521,14.4031918 15.9021575,15.8721298 15.5004686,16.1567352 Z" id="Shape" fill="#BF2519" fill-rule="nonzero"></path>
                    </g>
                </g>
            </g>
        </g>
    </g>
</svg>